<svg xmlns="http://www.w3.org/2000/svg" version="1.1" xmlns:xlink="http://www.w3.org/1999/xlink" xmlns:svgjs="http://svgjs.dev/svgjs" width="1000" height="1125" viewBox="0 0 1000 1125"><g transform="matrix(1,0,0,1,0,0)"><svg viewBox="0 0 320 360" data-background-color="#dedede" preserveAspectRatio="xMidYMid meet" height="1125" width="1000" xmlns="http://www.w3.org/2000/svg" xmlns:xlink="http://www.w3.org/1999/xlink"><g id="tight-bounds" transform="matrix(1,0,0,1,0,0)"><svg viewBox="0 0 320 360" height="360" width="320"><g><svg></svg></g><g><svg viewBox="0 0 320 360" height="360" width="320"><g><path d="M320 187.111c0-45.764-20.238-86.866-52.203-114.908-28.043-31.964-69.145-52.203-114.908-52.203-84.302 0-152.889 68.587-152.889 152.889 0 45.753 20.231 86.848 52.185 114.891 28.043 31.975 69.152 52.22 114.926 52.22 0.299 0 0.59-0.021 0.889-0.021 0.299 0 0.59 0.021 0.889 0.021 83.456 0 151.111-67.655 151.111-151.111 0-0.299-0.021-0.59-0.021-0.889 0-0.299 0.021-0.59 0.021-0.889zM59.833 263.097c-15.093-21.255-24.071-47.143-24.256-75.097 0.48-72.928 59.492-131.943 132.423-132.423 27.954 0.185 53.845 9.163 75.097 24.256 24.366 23.627 39.57 56.64 39.57 93.056 0 71.559-58.219 129.778-129.778 129.778-36.416 0-69.429-15.204-93.056-39.57zM3.556 172.889c0-82.343 66.99-149.333 149.333-149.333 35.051 0 67.292 12.167 92.8 32.462-22.98-13.824-49.863-21.796-78.578-21.796-84.302 0-152.889 68.587-152.889 152.889 0 28.708 7.968 55.584 21.785 78.56-20.288-25.5-32.452-57.739-32.451-92.782zM167.111 318.667c-35.84 0-68.363-14.418-92.107-37.743 21.952 15.89 48.864 25.298 77.885 25.298 73.522 0 133.333-59.812 133.333-133.333 0-29.02-9.408-55.932-25.298-77.885 23.324 23.744 37.742 56.267 37.743 92.107 0 72.54-59.015 131.556-131.556 131.556z" fill="#374151" fill-rule="nonzero" stroke="none" stroke-width="1" stroke-linecap="butt" stroke-linejoin="miter" stroke-miterlimit="10" stroke-dasharray="" stroke-dashoffset="0" font-family="none" font-weight="none" font-size="none" text-anchor="none" style="mix-blend-mode: normal" data-fill-palette-color="tertiary"></path></g><g transform="matrix(1,0,0,1,64,123.01500000000001)"><svg viewBox="0 0 192 113.96999999999998" height="113.96999999999998" width="192"><g><svg viewBox="0 0 192.00000000000003 113.97" height="113.96999999999998" width="192"><g><svg viewBox="0 0 192.00000000000003 113.97" height="113.97" width="192.00000000000003"><g><svg viewBox="0 0 192.00000000000003 113.97" height="113.97" width="192.00000000000003"><g><svg viewBox="0 0 192.00000000000003 113.97" height="113.97" width="192.00000000000003"><rect width="192.00000000000003" height="113.97" x="0" y="0" opacity="1" fill="#374151" data-fill-palette-color="tertiary"></rect><g transform="matrix(1,0,0,1,15.471,15.471)"><svg width="161.05800000000002" viewBox="7.8 -36.9 78.95 40.699999999999996" height="83.02799999999999" data-palette-color="#dedede"><path d="M8.4-2.6L8.4-2.6Q9.15-4.25 10.2-6.85 11.25-9.45 12.4-12.48 13.55-15.5 14.75-18.68 15.95-21.85 17-24.7 18.05-27.55 18.82-29.8 19.6-32.05 19.95-33.25L19.95-33.25Q16.8-31.95 14.55-29.3 12.3-26.65 11.15-22.65L11.15-22.65Q10-23.05 9.05-24.08 8.1-25.1 7.8-26.65L7.8-26.65Q8.3-28.95 9.68-30.85 11.05-32.75 13.15-34.1 15.25-35.45 18-36.18 20.75-36.9 23.9-36.9L23.9-36.9Q27.9-36.9 31.25-35.73 34.6-34.55 37-32.45 39.4-30.35 40.75-27.4 42.1-24.45 42.1-20.85L42.1-20.85Q42.1-15.95 40.3-11.5 38.5-7.05 35.43-3.65 32.35-0.25 28.3 1.78 24.25 3.8 19.8 3.8L19.8 3.8Q15.7 3.8 12.78 2.18 9.85 0.55 8.4-2.6ZM26.05-34.4L26.05-34.4Q23.55-34.4 21.3-33.7L21.3-33.7Q23.5-32.9 24.95-32.02 26.4-31.15 26.95-30.65L26.95-30.65Q26.55-30.1 25.78-28.7 25-27.3 23.98-25.3 22.95-23.3 21.8-20.93 20.65-18.55 19.55-16.05L19.55-16.05Q16.7-9.7 15.43-6.05 14.15-2.4 14.15-1L14.15-1Q14.85-0.75 15.85-0.65 16.85-0.55 18-0.55L18-0.55Q22.05-0.55 25.68-2.43 29.3-4.3 32.02-7.45 34.75-10.6 36.33-14.78 37.9-18.95 37.9-23.55L37.9-23.55Q37.9-28.7 34.7-31.55 31.5-34.4 26.05-34.4ZM61.65-20.7L61.65-20.7Q61.45-17.6 60.55-15.38 59.65-13.15 57.97-11.48 56.3-9.8 53.9-8.45 51.5-7.1 48.3-5.85L48.3-5.85Q48.3-5.55 48.27-5.23 48.25-4.9 48.25-4.55L48.25-4.55Q48.25-3.9 48.35-3.2 48.45-2.5 48.7-1.9 48.95-1.3 49.4-0.93 49.85-0.55 50.55-0.55L50.55-0.55Q51.9-0.55 53.2-1.15 54.5-1.75 55.67-2.63 56.85-3.5 57.87-4.53 58.9-5.55 59.7-6.4L59.7-6.4Q60.2-5.95 60.55-5.55L60.55-5.55Q58.3-2.55 55.62-0.58 52.95 1.4 50.55 1.95L50.55 1.95Q47.1 1.55 45.17-0.58 43.25-2.7 43.25-5.7L43.25-5.7Q43.25-7.75 43.82-9.88 44.4-12 45.42-13.98 46.45-15.95 47.82-17.7 49.2-19.45 50.77-20.75 52.35-22.05 54.02-22.8 55.7-23.55 57.35-23.55L57.35-23.55Q59.65-23.25 61.65-20.7ZM58.2-19.05L58.2-19.05Q56.85-18.85 55.4-17.95 53.95-17.05 52.67-15.55 51.4-14.05 50.35-12.05 49.3-10.05 48.7-7.75L48.7-7.75Q52.7-9.75 55.35-12.68 58-15.6 58.2-19.05ZM66.35-17.7L66.35-17.7Q66.35-18.6 66.47-19.4 66.6-20.2 67-20.78 67.4-21.35 68.1-21.68 68.8-22 69.95-22L69.95-22Q70.65-22 71.52-21.85 72.4-21.7 72.8-21.3L72.8-21.3Q72.6-20.45 72.47-19.8 72.35-19.15 72.27-18.38 72.2-17.6 72.15-16.53 72.1-15.45 72.05-13.75L72.05-13.75Q71.95-10.35 71.72-7.68 71.5-5 70.7-2.35L70.7-2.35Q70.7-2.15 70.85-2.15L70.85-2.15Q71.6-2.7 72.55-3.75 73.5-4.8 74.55-6.13 75.6-7.45 76.65-8.95 77.7-10.45 78.6-11.9L78.6-11.9Q79.8-14 81.25-17.15 82.7-20.3 83.65-23.9L83.65-23.9Q83.95-23.9 84.42-23.78 84.9-23.65 85.37-23.48 85.85-23.3 86.22-23.1 86.6-22.9 86.75-22.75L86.75-22.75Q86.65-20.6 85.72-18.35 84.8-16.1 83.5-14 82.2-11.9 80.75-10.05 79.3-8.2 78.1-6.85L78.1-6.85Q75.7-4.05 73.27-1.85 70.85 0.35 67.5 2.4L67.5 2.4Q66.2 1.9 65.45 1.07 64.7 0.25 64.7-0.65L64.7-0.65Q64.7-1.25 64.97-2.02 65.25-2.8 65.6-4.03 65.95-5.25 66.22-7.1 66.5-8.95 66.5-11.8L66.5-11.8Q66.5-13.45 66.42-15.13 66.35-16.8 66.35-17.7Z" opacity="1" transform="matrix(1,0,0,1,0,0)" fill="#dedede" class="undefined-text-0" data-fill-palette-color="quaternary" id="text-0"></path></svg></g></svg></g></svg></g></svg></g></svg></g></svg></g></svg></g><defs></defs></svg><rect width="320" height="360" fill="none" stroke="none" visibility="hidden"></rect></g></svg></g></svg>